<svg width="121" height="44" viewBox="0 0 121 44" fill="none" xmlns="http://www.w3.org/2000/svg">
<!-- L -->
<path d="M38.584 28V14.56H41.664V25.088H49.504V28H38.584Z" fill="#4F39F6"/>
<!-- I -->
<path d="M52.9782 28V14.56H56.0582V28H52.9782ZM54.5182 12.096C53.9955 12.096 53.5569 11.9187 53.2022 11.564C52.8662 11.2093 52.6982 10.7707 52.6982 10.248C52.6982 9.72533 52.8662 9.28667 53.2022 8.932C53.5569 8.57733 53.9955 8.4 54.5182 8.4C55.0595 8.4 55.4982 8.57733 55.8342 8.932C56.1702 9.28667 56.3382 9.72533 56.3382 10.248C56.3382 10.7707 56.1702 11.2093 55.8342 11.564C55.4982 11.9187 55.0595 12.096 54.5182 12.096Z" fill="#4F39F6"/>
<!-- N -->
<path d="M59.5127 28V14.56H62.5927V28H59.5127ZM68.7247 28V20.244C68.7247 19.348 68.4354 18.6107 67.8567 18.032C67.2967 17.4533 66.5687 17.164 65.6727 17.164C65.0754 17.164 64.5434 17.2947 64.0767 17.556C63.61 17.8173 63.246 18.1813 62.9847 18.648C62.7234 19.1147 62.5927 19.6467 62.5927 20.244L61.3887 19.572C61.3887 18.5453 61.6127 17.64 62.0607 16.856C62.5087 16.0533 63.1247 15.428 63.9087 14.98C64.7114 14.5133 65.6074 14.28 66.5967 14.28C67.6047 14.28 68.5007 14.5413 69.2847 15.064C70.0687 15.568 70.6847 16.2307 71.1327 17.052C71.5807 17.8547 71.8047 18.6947 71.8047 19.572V28H68.7247Z" fill="#4F39F6"/>
<!-- K -->
<path d="M73.6186 28V14.56H76.6986V20.5L81.5426 14.56H84.5386L80.2226 20.3L85.2586 28H82.0946L78.2626 22.2L76.6986 24V28H73.6186Z" fill="#4F39F6"/>
<!-- A -->
<path d="M87.432 28L91.432 14.56H94.512L98.512 28H95.432L94.632 25.2H91.312L90.512 28H87.432ZM92.972 17.5L91.812 22.8H93.132L92.972 17.5Z" fill="#4F39F6"/>

<path d="M0.0619184 21.0601L20.2432 4.00023L12.4475 34.7521L12.1408 23.8491L0.0619184 21.0601Z" fill="#4F39F6"/>
<path d="M13.798 17.2924L27.9439 21.5243L7.23363 39.2052L7.23841 39.2095L13.798 17.2924Z" fill="#4F39F6"/>
</svg>