<?xml version="1.0" encoding="UTF-8"?>
<svg version="1.1" xmlns="http://www.w3.org/2000/svg" width="500" height="500">
<path d="M0 0 C165 0 330 0 500 0 C500 165 500 330 500 500 C335 500 170 500 0 500 C0 335 0 170 0 0 Z " fill="#FEFEFE" transform="translate(0,0)"/>
<path d="M0 0 C-0.55258806 6.37699322 -1.71204449 12.13364846 -3.5625 18.25 C-4.02831724 19.79502469 -4.48814446 21.34187043 -4.94140625 22.890625 C-5.14451416 23.56125977 -5.34762207 24.23189453 -5.55688477 24.92285156 C-6.17386173 27.46101362 -6.17386173 27.46101362 -6 32 C5.88 35.465 5.88 35.465 18 39 C15.97852311 43.04295377 14.77016941 44.24475596 11.3125 46.9375 C6.6043374 50.68305006 2.02862783 54.53946312 -2.5 58.5 C-11.09209012 65.98609164 -19.81038571 73.25128455 -29 80 C-27.65242215 72.04726593 -25.39334957 64.52793509 -22.875 56.875 C-22.50246094 55.72773438 -22.12992188 54.58046875 -21.74609375 53.3984375 C-20.83572012 50.59728787 -19.92027251 47.79790983 -19 45 C-19.61601074 44.88027832 -20.23202148 44.76055664 -20.86669922 44.63720703 C-26.65017979 43.49902158 -32.39283458 42.24706087 -38.125 40.875 C-38.89070312 40.69324219 -39.65640625 40.51148438 -40.4453125 40.32421875 C-42.2972489 39.88438385 -44.14868104 39.44242657 -46 39 C-38.74067493 31.66372095 -31.0274076 24.9575392 -23.0078125 18.46875 C-18.90127858 15.09819229 -14.87794881 11.63438902 -10.85839844 8.16088867 C-1.39847404 0 -1.39847404 0 0 0 Z " fill="#523CF6" transform="translate(214,151)"/>
<path d="M0 0 C2.625 1.6875 2.625 1.6875 4.625 4.6875 C4.94384766 6.7722168 4.94384766 6.7722168 5.0390625 9.13671875 C5.07773437 9.98427734 5.11640625 10.83183594 5.15625 11.70507812 C5.1871875 12.58615234 5.218125 13.46722656 5.25 14.375 C5.28867187 15.26767578 5.32734375 16.16035156 5.3671875 17.08007812 C5.46140218 19.2823462 5.54701588 21.48460722 5.625 23.6875 C6.615 24.0175 7.605 24.3475 8.625 24.6875 C8.625 26.6675 8.625 28.6475 8.625 30.6875 C5.985 30.6875 3.345 30.6875 0.625 30.6875 C-0.035 29.3675 -0.695 28.0475 -1.375 26.6875 C-2.035 26.6875 -2.695 26.6875 -3.375 26.6875 C-3.705 27.6775 -4.035 28.6675 -4.375 29.6875 C-8.09570085 31.54785042 -12.32274756 31.24958663 -16.375 30.6875 C-19.16864955 28.55900511 -20.04356153 27.15529895 -20.8125 23.75 C-21.18251172 19.67987106 -20.71453488 18.10044783 -18.0625 14.875 C-13.73671984 11.78962427 -8.48755189 10.80643929 -3.375 9.6875 C-3.375 8.6975 -3.375 7.7075 -3.375 6.6875 C-4.83292884 6.63350264 -6.29142712 6.59470823 -7.75 6.5625 C-8.96816406 6.52769531 -8.96816406 6.52769531 -10.2109375 6.4921875 C-12.58842243 6.47379949 -12.58842243 6.47379949 -14.375 8.6875 C-16.5 8.3125 -16.5 8.3125 -18.375 7.6875 C-18.705 6.3675 -19.035 5.0475 -19.375 3.6875 C-13.24927208 -1.44486663 -7.56297976 -2.9411588 0 0 Z " fill="#543FF6" transform="translate(391.375,175.3125)"/>
<path d="M0 0 C2.64 0 5.28 0 8 0 C8 7.92 8 15.84 8 24 C12.08395667 19.96886294 12.08395667 19.96886294 15.3125 15.6875 C18 13 18 13 20.09375 12.62109375 C22.3125 12.625 22.3125 12.625 26 13 C25.06398754 14.41764994 24.1261208 15.83407568 23.1875 17.25 C22.66542969 18.03890625 22.14335937 18.8278125 21.60546875 19.640625 C20 22 20 22 18.23828125 24.046875 C16.82770623 25.87746579 16.82770623 25.87746579 17.02734375 27.8671875 C18.43321122 30.94993303 20.46834273 33.48886328 22.5625 36.125 C27 41.7408953 27 41.7408953 27 44 C23.68820575 44.66235885 22.16659155 44.96193668 19 44 C15.48419002 40.70088092 12.62178268 37.04191497 10 33 C10 32.34 10 31.68 10 31 C9.34 31 8.68 31 8 31 C8 35.29 8 39.58 8 44 C5.36 44 2.72 44 0 44 C0 29.48 0 14.96 0 0 Z " fill="#5742F6" transform="translate(341,162)"/>
<path d="M0 0 C2.45243461 1.90063682 3.62927427 3.25854855 5 6 C5.084915 7.8863912 5.107193 9.77578515 5.09765625 11.6640625 C5.09443359 12.78554687 5.09121094 13.90703125 5.08789062 15.0625 C5.07951172 16.238125 5.07113281 17.41375 5.0625 18.625 C5.05798828 19.80835938 5.05347656 20.99171875 5.04882812 22.2109375 C5.03701467 25.14067507 5.02054258 28.07031272 5 31 C2.36 31 -0.28 31 -3 31 C-3.02505615 30.30849854 -3.0501123 29.61699707 -3.07592773 28.90454102 C-3.19152161 25.79032134 -3.31441242 22.67643211 -3.4375 19.5625 C-3.47681641 18.47388672 -3.51613281 17.38527344 -3.55664062 16.26367188 C-3.59853516 15.22919922 -3.64042969 14.19472656 -3.68359375 13.12890625 C-3.72025146 12.17056885 -3.75690918 11.21223145 -3.79467773 10.22485352 C-3.75834424 8.02861075 -3.75834424 8.02861075 -5 7 C-8.45821402 6.74996036 -8.45821402 6.74996036 -12 7 C-14.52128356 9.52128356 -14.29353069 10.51239013 -14.4140625 14.0078125 C-14.47207031 15.48701172 -14.47207031 15.48701172 -14.53125 16.99609375 C-14.57765625 18.54490234 -14.57765625 18.54490234 -14.625 20.125 C-14.68300781 21.68541016 -14.68300781 21.68541016 -14.7421875 23.27734375 C-14.83664766 25.85138311 -14.92221214 28.42541155 -15 31 C-17.64 31 -20.28 31 -23 31 C-23 20.77 -23 10.54 -23 0 C-20.69 0 -18.38 0 -16 0 C-16 1.32 -16 2.64 -16 4 C-15.34 4 -14.68 4 -14 4 C-13.67 3.01 -13.34 2.02 -13 1 C-8.80950983 -1.81203945 -4.7067586 -1.2199503 0 0 Z " fill="#543FF6" transform="translate(328,175)"/>
<path d="M0 0 C2.97 0 5.94 0 9 0 C9 11.55 9 23.1 9 35 C14.94 35 20.88 35 27 35 C27 37.31 27 39.62 27 42 C18.09 42 9.18 42 0 42 C0 28.14 0 14.28 0 0 Z " fill="#5C48F6" transform="translate(255,164)"/>
<path d="M0 0 C2.64 0 5.28 0 8 0 C8 10.23 8 20.46 8 31 C5.36 31 2.72 31 0 31 C0 20.77 0 10.54 0 0 Z " fill="#523CF6" transform="translate(288,175)"/>
<path d="M0 0 C0.32357362 3.55930982 0.3880551 5.41791735 -1.625 8.4375 C-4 10 -4 10 -7.25 9.75 C-8.61125 9.37875 -8.61125 9.37875 -10 9 C-10.33 7.35 -10.66 5.7 -11 4 C-7.25407744 1.67145354 -4.50822542 0 0 0 Z " fill="#F0EEFE" transform="translate(389,191)"/>
<path d="M0 0 C3.625 0.375 3.625 0.375 7 1 C7.6875 3.3125 7.6875 3.3125 8 6 C6.875 7.8125 6.875 7.8125 5 9 C2.4375 9.3125 2.4375 9.3125 0 9 C-2 7 -2 7 -2.25 4.5 C-2 2 -2 2 0 0 Z " fill="#5B47F6" transform="translate(289,162)"/>
</svg>
